<svg xmlns="http://www.w3.org/2000/svg" width="22.13" height="20" viewBox="0 0 22.13 20">
  <path id="_5ea295dd52f0aad466dab5b3_eligible-icon" data-name="5ea295dd52f0aad466dab5b3_eligible-icon" d="M12.186,14.241A4.878,4.878,0,0,0,16.92,9.27,4.878,4.878,0,0,0,12.186,4.3,4.878,4.878,0,0,0,7.452,9.27,4.878,4.878,0,0,0,12.186,14.241ZM13.369,24.3,12.3,23.235a3.86,3.86,0,0,1,0-5.325l.947-1.065c-.473,0-.828-.118-1.183-.118-3.2,0-9.467,1.657-9.467,4.97v2.485H13.369Zm.828-2.959,2.485,2.6a1.144,1.144,0,0,0,1.657,0l6.036-6.509a1.287,1.287,0,0,0,0-1.775h0a1.144,1.144,0,0,0-1.657,0l-5.207,5.562-1.657-1.775a1.144,1.144,0,0,0-1.657,0h0A1.431,1.431,0,0,0,14.2,21.341Z" transform="translate(-2.6 -4.3)" fill="#264b65" fill-rule="evenodd"/>
</svg>
